<?xml version="1.0" standalone="no"?>
<svg xmlns:xlink="http://www.w3.org/1999/xlink" id="wave" style="transform:rotate(180deg); transition: 0.3s" viewBox="0 0 1440 150" version="1.1" xmlns="http://www.w3.org/2000/svg"><defs><linearGradient id="sw-gradient-0" x1="0" x2="0" y1="1" y2="0"><stop stop-color="rgba(252, 238, 219, 1)" offset="0%"/><stop stop-color="rgba(252, 238, 219, 1)" offset="100%"/></linearGradient></defs><path style="transform:translate(0, 0px); opacity:1" fill="url(#sw-gradient-0)" d="M0,120L40,120C80,120,160,120,240,100C320,80,400,40,480,22.5C560,5,640,10,720,32.5C800,55,880,95,960,107.5C1040,120,1120,105,1200,95C1280,85,1360,80,1440,70C1520,60,1600,45,1680,50C1760,55,1840,80,1920,85C2000,90,2080,75,2160,65C2240,55,2320,50,2400,52.5C2480,55,2560,65,2640,70C2720,75,2800,75,2880,65C2960,55,3040,35,3120,27.5C3200,20,3280,25,3360,37.5C3440,50,3520,70,3600,65C3680,60,3760,30,3840,17.5C3920,5,4000,10,4080,20C4160,30,4240,45,4320,55C4400,65,4480,70,4560,65C4640,60,4720,45,4800,40C4880,35,4960,40,5040,37.5C5120,35,5200,25,5280,37.5C5360,50,5440,85,5520,82.5C5600,80,5680,40,5720,20L5760,0L5760,150L5720,150C5680,150,5600,150,5520,150C5440,150,5360,150,5280,150C5200,150,5120,150,5040,150C4960,150,4880,150,4800,150C4720,150,4640,150,4560,150C4480,150,4400,150,4320,150C4240,150,4160,150,4080,150C4000,150,3920,150,3840,150C3760,150,3680,150,3600,150C3520,150,3440,150,3360,150C3280,150,3200,150,3120,150C3040,150,2960,150,2880,150C2800,150,2720,150,2640,150C2560,150,2480,150,2400,150C2320,150,2240,150,2160,150C2080,150,2000,150,1920,150C1840,150,1760,150,1680,150C1600,150,1520,150,1440,150C1360,150,1280,150,1200,150C1120,150,1040,150,960,150C880,150,800,150,720,150C640,150,560,150,480,150C400,150,320,150,240,150C160,150,80,150,40,150L0,150Z"/></svg>