<?xml version="1.0" standalone="no"?>
<svg xmlns:xlink="http://www.w3.org/1999/xlink" id="wave" style="transform:rotate(0deg); transition: 0.3s" viewBox="0 0 1440 120" version="1.1" xmlns="http://www.w3.org/2000/svg"><defs><linearGradient id="sw-gradient-0" x1="0" x2="0" y1="1" y2="0"><stop stop-color="rgba(235, 219, 1, 1)" offset="0%"/><stop stop-color="rgba(235, 219, 1, 1)" offset="100%"/></linearGradient></defs><path style="transform:translate(0, 0px); opacity:1" fill="url(#sw-gradient-0)" d="M0,108L60,94C120,80,240,52,360,52C480,52,600,80,720,86C840,92,960,76,1080,68C1200,60,1320,60,1440,52C1560,44,1680,28,1800,34C1920,40,2040,68,2160,82C2280,96,2400,96,2520,92C2640,88,2760,80,2880,82C3000,84,3120,96,3240,96C3360,96,3480,84,3600,82C3720,80,3840,88,3960,90C4080,92,4200,88,4320,84C4440,80,4560,76,4680,76C4800,76,4920,80,5040,68C5160,56,5280,28,5400,14C5520,0,5640,0,5760,14C5880,28,6000,56,6120,66C6240,76,6360,68,6480,64C6600,60,6720,60,6840,58C6960,56,7080,52,7200,44C7320,36,7440,24,7560,22C7680,20,7800,28,7920,40C8040,52,8160,68,8280,66C8400,64,8520,44,8580,34L8640,24L8640,120L8580,120C8520,120,8400,120,8280,120C8160,120,8040,120,7920,120C7800,120,7680,120,7560,120C7440,120,7320,120,7200,120C7080,120,6960,120,6840,120C6720,120,6600,120,6480,120C6360,120,6240,120,6120,120C6000,120,5880,120,5760,120C5640,120,5520,120,5400,120C5280,120,5160,120,5040,120C4920,120,4800,120,4680,120C4560,120,4440,120,4320,120C4200,120,4080,120,3960,120C3840,120,3720,120,3600,120C3480,120,3360,120,3240,120C3120,120,3000,120,2880,120C2760,120,2640,120,2520,120C2400,120,2280,120,2160,120C2040,120,1920,120,1800,120C1680,120,1560,120,1440,120C1320,120,1200,120,1080,120C960,120,840,120,720,120C600,120,480,120,360,120C240,120,120,120,60,120L0,120Z"/></svg>